# xmcd
#
# Track frame offsets:
#	150
#	21367
#	37270
#	56737
#	69298
#	84627
#	99988
#	114794
#	126464
#	134405
#	153725
#	158549
#	173324
#	190142
#	204707
#	218187
#	234071
#	250335
#	259701
#	275745
#	289168
#	290005
#
# Disc length: 4063 seconds
#
# Revision: 2
# Processed by: cddbd v1.5.2PL0 Copyright (c) Steve Scherf et al.
# Submitted via: audiograbber 1.83.01
#
DISCID=450fdd16
DTITLE=Various Artist - Promo Only Country Radio 2005 - 09
DYEAR=2005
DGENRE=Country
TTITLE0=Keith Urban - Better Life
TTITLE1=Gretchen Wilson - All Jacked Up
TTITLE2=Rascal Flatts - Skin (Sarabeth)
TTITLE3=Toby Keith - As Good As I Once Was
TTITLE4=Alan Jackson - USA Today
TTITLE5=Seven - Drunk Chicks
TTITLE6=Terri Clark - She Didn't Have Time
TTITLE7=Blake Shelton - Nobody But Me
TTITLE8=Joe Nichols - Tequila Makes Her Clothes Fall Off
TTITLE9=Dierks Bentley - Come A Little Closer
TTITLE10=The Warren Brothers - Change
TTITLE11=Martina McBride - (I Never Promised You A) Rose Garden
TTITLE12=Keith Anderson - XXL
TTITLE13=Steve Holy - It's My Time (Waste It If I Want To)
TTITLE14=Ray Scott - My Kind Of Music
TTITLE15=Darryl Worley - I Love Her, She Hates Me
TTITLE16=Ryan Shupe and The Rubberband - Dream Big
TTITLE17=Luke Stricklin - American By God's Amazing Grace
TTITLE18=Josh Turner - Your Man
TTITLE19=Buddy Jewell - So Gone
TTITLE20=Keni Thomas - Gloryland
TTITLE21=Derryl Perry - You Will
EXTD=
EXTT0=
EXTT1=
EXTT2=
EXTT3=
EXTT4=
EXTT5=
EXTT6=
EXTT7=
EXTT8=
EXTT9=
EXTT10=
EXTT11=
EXTT12=
EXTT13=
EXTT14=
EXTT15=
EXTT16=
EXTT17=
EXTT18=
EXTT19=
EXTT20=
EXTT21=
PLAYORDER=
